<svg id="Layer_1" data-name="Layer 1" xmlns="http://www.w3.org/2000/svg" xmlns:xlink="http://www.w3.org/1999/xlink" viewBox="0 0 485.76 204.6"><defs><style>.cls-1,.cls-4{fill:#ec1c24;}.cls-2{fill:#00ad50;}.cls-3{fill:url(#linear-gradient);}.cls-4{font-size:39.56px;font-family:Gotham-Bold, Gotham;font-weight:700;letter-spacing:-0.06em;}</style><linearGradient id="linear-gradient" x1="300.45" y1="-2.96" x2="174.26" y2="123.23" gradientUnits="userSpaceOnUse"><stop offset="0.14" stop-color="#acd037"/><stop offset="0.69" stop-color="#00a54c"/></linearGradient></defs><title>lcs_group</title><path class="cls-1" d="M201.27,26a99.6,99.6,0,0,0-61.39,92c0,41,28.58,80.42,62.29,92.4,13.51,4.79,28.55,7.69,38.16,7.46,53.81-1.31,87.42-48.38,87.42-48.38s-19.49-9-47.89-9.25h-.15l-2.88.15a6.07,6.07,0,0,0-2.69.94l-1.82,1.18c-8.75,5.89-19.25,11.23-29.82,11.63h-2.17c-31.2,0-56.58-25.18-56.58-56.14A56.32,56.32,0,0,1,236.9,62h.19c1.17-.07,2.23-.1,3.24-.1a56.55,56.55,0,0,1,31.25,9.35l2.79,1.84,3.34-.19A76.37,76.37,0,0,0,309.49,64l12-6.37L311.92,48a100,100,0,0,0-71.59-29.83,101.33,101.33,0,0,0-19,1.81" transform="translate(-13.24 -13.7)"/><path class="cls-2" d="M430.39,93.32c-25.16-5.66-37-9.56-36.51-20.85.53-13.16,15.49-19.15,29.18-19.15,10.88,0,20.8,3.5,27.21,9.59a14.33,14.33,0,0,0,4.06,2.64c6.36,2.89,13.78,4.3,22.69,4.3,2.24,0,4.66-.08,7.4-.26l12.71-1-3.52-9.14a99.74,99.74,0,0,0-5.17-11.15l-.27-.46C468.35,17,435.4,13.7,422.16,13.7c-1.87,0-3.73.06-5.53.17C383.94,15.94,350,37.59,351.49,73.63c1.89,45.63,41.64,55.27,70.66,62.31,19.83,4.81,32,8.17,31.93,16.28-.06,10.6-5.39,23.22-30.44,23.22-10.84,0-19.88-2.49-23.31-4.17l-3.08-1.53-3-1.53c-6.41-3.26-12.47-6.34-18.93-6.78-8.3-1-17.14.08-27.72,3.47l-9.07,3.47,6.42,8.79c15.43,21.38,37,35.09,62.29,39.64a120.56,120.56,0,0,0,19.23,1.5,65.39,65.39,0,0,0,11.38-.81c39.51-4.83,61-36.06,61.18-63C499.29,108.81,459.47,99.86,430.39,93.32Z" transform="translate(-13.24 -13.7)"/><path class="cls-2" d="M150.29,184.22c-6.07-6.45-16.07-10.82-25.49-11.14-.75,0-11.89,0-24.71,0-12,0-25.44.07-33,.07H61.67c-.25-6.21-1-52.18-.87-79.9v-.76c.13-20.41.23-38,.09-44-.35-15.08-13.55-30.69-35-30.69-.83,0-1.65,0-2.42.09l-10.18.72.51,156.81c0,26.14,13.38,41.74,35.79,41.74H157.19l.63-10.25C158.38,197.91,155.77,190.05,150.29,184.22Z" transform="translate(-13.24 -13.7)"/><path class="cls-3" d="M201.45,25.68C164,40.08,139.88,77.5,139.88,118a100.57,100.57,0,0,0,26.49,67.34c-9.31-13-15.4-29.19-15.4-46.39A79.29,79.29,0,0,1,258.58,64.91a56.42,56.42,0,0,1,13,6.32l2.79,1.84,3.34-.19A76.37,76.37,0,0,0,309.49,64l12-6.37L311.92,48a100,100,0,0,0-71.59-29.83,94,94,0,0,0-18.86,1.76A114.71,114.71,0,0,0,201.45,25.68Z" transform="translate(-13.24 -13.7)"/><text class="cls-4" transform="translate(190.77 119.67)">GROUP</text></svg>